<?xml version="1.0" standalone="no"?>
<!DOCTYPE svg PUBLIC "-//W3C//DTD SVG 20010904//EN"
 "http://www.w3.org/TR/2001/REC-SVG-20010904/DTD/svg10.dtd">
<svg version="1.0" xmlns="http://www.w3.org/2000/svg"
 width="512.000000pt" height="512.000000pt" viewBox="0 0 512.000000 512.000000"
 preserveAspectRatio="xMidYMid meet">

<g transform="translate(0.000000,512.000000) scale(0.100000,-0.100000)"
fill="#000000" stroke="none">
<path d="M423 5106 c-198 -48 -371 -227 -412 -424 -16 -75 -16 -4169 0 -4244
42 -203 224 -385 427 -427 37 -8 660 -11 2125 -11 2283 0 2135 -4 2261 62 91
48 195 156 239 248 19 41 40 99 46 128 16 75 16 4169 0 4244 -41 197 -215 377
-410 423 -56 13 -322 15 -2144 14 -1643 -1 -2091 -3 -2132 -13z m1557 -1476
c451 -119 770 -491 822 -961 51 -464 -222 -935 -651 -1120 -160 -68 -242 -84
-441 -83 -156 0 -185 3 -272 26 -353 96 -632 352 -754 692 -232 652 170 1342
855 1466 25 5 116 7 201 6 121 -3 174 -9 240 -26z m1625 -69 c192 -95 344
-393 390 -764 68 -546 -108 -1099 -393 -1239 -58 -29 -76 -33 -142 -32 -62 0
-85 5 -134 29 -64 32 -146 107 -196 180 -79 115 -151 308 -188 500 -24 128
-24 522 0 650 52 275 169 520 296 622 123 99 241 116 367 54z m752 -104 c85
-96 143 -460 143 -894 0 -434 -57 -794 -141 -897 -38 -45 -59 -45 -96 -3 -94
107 -150 511 -140 997 9 417 62 716 143 803 33 36 56 34 91 -6z"/>
</g>
</svg>
